<svg xmlns="http://www.w3.org/2000/svg" xmlns:xlink="http://www.w3.org/1999/xlink" id="Capa_1" x="0px" y="0px" viewBox="0 0 1080 259.7" style="enable-background:new 0 0 1080 259.7;" xml:space="preserve"><style type="text/css">	.st0{fill-rule:evenodd;clip-rule:evenodd;fill:#012B6D;}	.st1{fill:#B71D22;}	.st2{fill:#1B1918;}	.st3{fill-rule:evenodd;clip-rule:evenodd;fill:#B71D22;}</style><g>	<g>		<path class="st0" d="M128.3,23.1c-59,0-106.7,47.8-106.7,106.7c0,59,47.8,106.7,106.7,106.7c58.9,0,106.7-47.8,106.7-106.7   C235.1,70.9,187.3,23.1,128.3,23.1z M195.9,197.5h-22.5v-95.8c0-4.4-1.7-8.3-5-12c-3.6-3.3-7.6-5-11.9-5c-4.5,0-8.4,1.7-11.8,5.1   c-3.4,3.4-5.1,7.3-5.1,11.8v95.8H117v-95.8c0-4.4-1.7-8.3-5-12c-3.6-3.3-7.6-5-11.9-5c-4.5,0-8.4,1.7-11.8,5.1   c-3.4,3.4-5.1,7.3-5.1,11.8v95.8H60.7v-95.8c0-11.1,3.8-20.5,11.4-28.1c7.6-7.6,16.9-11.4,28-11.4c11.1,0,20.6,3.8,28.4,11.3   c7.5-7.5,16.8-11.3,27.9-11.3c11.4,0,20.8,3.7,28.3,11.2c7.4,7.4,11.2,16.9,11.2,28.3V197.5z"></path>		<path class="st1" d="M221.5,37.9C197,13.5,164.4,0,129.8,0c0,0-0.1,0-0.2,0C95,0,62.4,13.6,37.9,38.1   c-50.6,50.7-50.5,133.1,0.2,183.7c25.3,25.3,58.5,37.9,91.7,37.9c33.3,0,66.6-12.7,91.9-38.1C272.3,170.9,272.2,88.5,221.5,37.9z    M211.8,211.6c-21.8,21.9-50.9,34-81.8,34c0,0-0.1,0-0.1,0c-30.9,0-59.9-12-81.8-33.8C2.8,166.7,2.8,93.3,47.8,48.1v0   c21.8-21.9,50.9-34,81.8-34c0,0,0.1,0,0.1,0c30.9,0,59.9,12,81.8,33.8C256.7,93,256.8,166.4,211.8,211.6z"></path>	</g>	<g>		<rect x="513.3" y="172.2" class="st2" width="2.8" height="34.3"></rect>		<path class="st2" d="M287.9,189.7c-0.4-0.5-1.2-1.3-2.6-2.6c-1.2-1.2-2.2-2.3-3-3.3c-1-1.4-1.5-2.9-1.5-4.6c0-1.4,0.4-2.6,1.1-3.4   c0.7-0.8,1.6-1.2,2.8-1.2c1.8,0,3.5,0.5,4.9,1.4l0.6,0.4l1-2.9l-0.3-0.2c-1.7-1.2-3.7-1.8-5.8-1.8c-2.2,0-3.9,0.7-5.2,2.1   c-1.2,1.4-1.9,3.3-1.9,5.7c0,2.4,0.7,4.5,2,6.3c0.6,0.9,1.2,1.6,1.7,2.2c0.5,0.5,1.3,1.3,2.6,2.6c1.2,1.2,2.2,2.3,2.9,3.3   c1,1.3,1.5,2.8,1.5,4.4c0,1.8-0.5,3.2-1.4,4.2c-0.9,1-2.2,1.5-3.9,1.5c-1.7,0-3.3-0.7-4.9-2.2l-0.5-0.5l-1.4,2.8l0.2,0.3   c1.7,1.9,3.9,2.8,6.5,2.8c2.6,0,4.6-0.8,6-2.3c1.4-1.5,2.2-3.8,2.2-6.8c0-2.3-0.6-4.3-1.9-6.1C288.9,191,288.3,190.2,287.9,189.7z   "></path>		<path class="st2" d="M542.3,196.8c0,1,0,1.9,0,2.6c-0.4-0.7-0.8-1.4-1.2-2.1l-15.5-25.1l-0.2-0.3h-1.6v34.5h2.7V182   c0-1.1,0-2,0-2.7l16.9,27.3h1.6v-34.5h-2.8V196.8z"></path>		<polygon class="st2" points="548.9,175.4 557,175.4 557,206.5 559.7,206.5 559.7,175.4 567.7,175.4 567.7,172.2 548.9,172.2   "></polygon>		<polygon class="st2" points="574.3,189.4 582.8,189.4 582.8,186.3 574.3,186.3 574.3,175.3 583.7,175.3 583.7,172.2 571.6,172.2    571.6,206.5 584.1,206.5 584.1,203.2 574.3,203.2   "></polygon>		<path class="st2" d="M491.2,189.7c-0.5-0.5-1.3-1.3-2.6-2.6c-1.2-1.2-2.2-2.3-3-3.3c-1-1.4-1.5-2.9-1.5-4.6c0-1.5,0.4-2.6,1.1-3.4   c0.7-0.8,1.6-1.2,2.8-1.2c1.8,0,3.5,0.5,4.9,1.4l0.6,0.4l1-2.9l-0.3-0.2c-1.7-1.2-3.7-1.8-5.8-1.8c-2.2,0-3.9,0.7-5.2,2.1   c-1.2,1.4-1.9,3.3-1.9,5.7c0,2.4,0.7,4.5,2,6.3c0.6,0.9,1.2,1.6,1.8,2.2c0.5,0.5,1.3,1.3,2.6,2.6c1.2,1.2,2.2,2.3,2.9,3.3   c1,1.3,1.5,2.8,1.5,4.4c0,1.8-0.5,3.2-1.4,4.2c-0.9,1-2.2,1.5-3.9,1.5c-1.7,0-3.3-0.7-4.9-2.2l-0.5-0.5l-1.4,2.8l0.2,0.3   c1.7,1.9,3.9,2.8,6.5,2.8c2.6,0,4.6-0.8,6-2.3c1.4-1.5,2.2-3.8,2.2-6.8c0-2.3-0.6-4.3-1.9-6.1C492.2,191,491.6,190.2,491.2,189.7z   "></path>		<path class="st2" d="M454.1,196.8c0,1,0,1.9,0,2.6c-0.4-0.7-0.8-1.4-1.2-2.1l-15.6-25.1l-0.2-0.3h-1.6v34.5h2.8V182   c0-1.1,0-2,0-2.7l16.9,27.3h1.6v-34.5h-2.8V196.8z"></path>		<rect x="395.4" y="172.2" class="st2" width="2.8" height="34.3"></rect>		<path class="st2" d="M360.8,191.6c0,8.2-2.5,12.2-7.5,12.2c-5.1,0-7.5-4-7.5-12.2v-19.4H343v19.4c0,4.7,0.8,8.5,2.5,11.2   c1.7,2.8,4.3,4.2,7.8,4.2c3.5,0,6.1-1.4,7.8-4.2c1.6-2.7,2.5-6.5,2.5-11.2v-19.4h-2.8V191.6z"></path>		<path class="st2" d="M416.9,171.7c-3.6,0-6.6,1.8-8.9,5.2c-2.3,3.4-3.5,7.6-3.5,12.5c0,4.9,1.2,9.1,3.5,12.4   c2.4,3.4,5.4,5.2,8.9,5.2c3.5,0,6.6-1.8,8.9-5.2c2.3-3.4,3.5-7.6,3.5-12.4s-1.2-9.1-3.5-12.5C423.4,173.4,420.4,171.7,416.9,171.7   z M426.5,189.3c0,4.1-0.9,7.6-2.8,10.3c-1.8,2.7-4.1,4.1-6.8,4.1c-2.8,0-5-1.3-6.9-4.1c-1.9-2.8-2.8-6.3-2.8-10.3   c0-4.1,0.9-7.6,2.8-10.4c1.8-2.8,4.1-4.1,6.8-4.1c2.8,0,5,1.3,6.8,4.1C425.6,181.7,426.5,185.2,426.5,189.3z"></path>		<path class="st2" d="M308.1,171.7c-3.6,0-6.6,1.8-8.9,5.2c-2.3,3.4-3.5,7.6-3.5,12.5c0,4.9,1.2,9.1,3.5,12.4   c2.4,3.4,5.4,5.2,8.9,5.2c3.5,0,6.6-1.8,8.9-5.2c2.3-3.4,3.5-7.6,3.5-12.4c0-4.9-1.2-9.1-3.5-12.5   C314.7,173.4,311.7,171.7,308.1,171.7z M317.8,189.3c0,4.1-0.9,7.6-2.8,10.3c-1.8,2.7-4.1,4.1-6.8,4.1c-2.8,0-5-1.3-6.8-4.1   c-1.9-2.8-2.8-6.3-2.8-10.3c0-4.1,0.9-7.6,2.8-10.4c1.8-2.8,4.1-4.1,6.8-4.1c2.8,0,5,1.3,6.8,4.1   C316.8,181.7,317.8,185.2,317.8,189.3z"></path>		<path class="st2" d="M389.2,202.2c-1.8,1-4,1.6-6.7,1.6c-2.6,0-4.9-1.4-7-4.2c-2-2.8-3.1-6.3-3.1-10.3c0-4.1,0.9-7.5,2.7-10.3   c1.7-2.7,3.8-4.1,6.4-4.1c2.6,0,5.2,0.5,7.6,1.6l0.6,0.3l0.7-3l-0.4-0.2c-2.7-1.2-5.5-1.8-8.3-1.8c-3.6,0-6.5,1.7-8.8,5.2   c-2.2,3.3-3.3,7.5-3.3,12.5c0,5,1.3,9.2,3.8,12.5c2.6,3.4,5.6,5.1,9,5.1c3.4,0,6-0.8,7.9-2.3l0.3-0.2l-0.9-2.6L389.2,202.2z"></path>		<path class="st2" d="M607,202.6c-1.5,0.8-3.5,1.2-6,1.2c-2.7,0-4.9-1.4-6.9-4.2c-2-2.8-3-6.3-3-10.3c0-4.1,0.9-7.5,2.7-10.3   c1.7-2.7,3.8-4.1,6.4-4.1c2.6,0,5.2,0.5,7.6,1.6l0.6,0.3l0.7-3l-0.4-0.2c-2.7-1.2-5.5-1.8-8.3-1.8c-3.6,0-6.5,1.7-8.8,5.2   c-2.2,3.3-3.3,7.5-3.3,12.4c0,4.9,1.2,9.1,3.7,12.5c2.5,3.4,5.6,5.2,9.2,5.2c3.6,0,6.4-0.9,8.4-2.6l0.2-0.2v-15.5H607V202.6z"></path>		<polygon class="st2" points="329.6,172.2 326.8,172.2 326.8,206.5 340.4,206.5 340.4,203.2 329.6,203.2   "></polygon>		<polygon class="st2" points="467.3,189.4 475.8,189.4 475.8,186.3 467.3,186.3 467.3,175.3 476.7,175.3 476.7,172.2 464.6,172.2    464.6,206.5 477.1,206.5 477.1,203.2 467.3,203.2   "></polygon>		<path class="st2" d="M705.6,189.7c-0.4-0.5-1.2-1.3-2.6-2.6c-1.2-1.2-2.2-2.3-3-3.3c-1-1.4-1.5-2.9-1.5-4.6c0-1.5,0.4-2.6,1.1-3.4   c0.7-0.8,1.6-1.2,2.8-1.2c1.9,0,3.5,0.5,4.9,1.4l0.6,0.4l1-2.9l-0.3-0.2c-1.7-1.2-3.7-1.8-5.8-1.8c-2.2,0-3.9,0.7-5.2,2.1   c-1.2,1.4-1.9,3.3-1.9,5.7c0,2.4,0.7,4.5,2,6.3c0.7,0.9,1.2,1.6,1.8,2.2c0.5,0.6,1.4,1.5,2.6,2.6c1.2,1.2,2.2,2.3,2.9,3.3   c1,1.3,1.5,2.8,1.5,4.4c0,1.8-0.5,3.2-1.4,4.2c-0.9,1-2.2,1.5-3.9,1.5c-1.7,0-3.3-0.7-4.9-2.2l-0.5-0.5l-1.4,2.8l0.2,0.3   c1.7,1.9,3.9,2.8,6.5,2.8c2.6,0,4.6-0.8,6-2.3c1.4-1.5,2.2-3.8,2.2-6.8c0-2.3-0.6-4.3-1.9-6.1C706.6,191,706.1,190.2,705.6,189.7z   "></path>		<path class="st2" d="M986,171.7c-3.5,0-6.6,1.8-8.9,5.2c-2.3,3.4-3.5,7.6-3.5,12.4c0,4.9,1.2,9.1,3.5,12.5   c2.4,3.4,5.4,5.2,8.9,5.2c3.5,0,6.5-1.8,8.9-5.2c2.3-3.4,3.5-7.6,3.5-12.4c0-4.9-1.2-9.1-3.5-12.5   C992.6,173.4,989.5,171.7,986,171.7z M995.6,189.3c0,4.1-0.9,7.6-2.8,10.3c-1.8,2.7-4.1,4.1-6.8,4.1c-2.8,0-5-1.3-6.8-4.1   c-1.9-2.8-2.8-6.3-2.8-10.3c0-4.1,0.9-7.6,2.8-10.4c1.8-2.8,4.1-4.1,6.8-4.1c2.8,0,5,1.3,6.8,4.1   C994.7,181.8,995.6,185.2,995.6,189.3z"></path>		<polygon class="st2" points="953.1,175.4 961.2,175.4 961.2,206.5 963.9,206.5 963.9,175.4 971.9,175.4 971.9,172.2 953.1,172.2      "></polygon>		<path class="st2" d="M945.3,172h-1.8l-9.6,32.2l-0.1,0c-1.5-0.3-2.9-1.3-4.2-3.2c-0.7-1-2.4-4.1-5.2-9.3c1-1,1.9-2.4,2.6-4   c0.9-1.8,1.3-3.7,1.3-5.8c0-3.1-0.8-5.6-2.3-7.3c-1.6-1.7-3.6-2.6-5.9-2.6c-1.5,0-3.3,0.1-5.4,0.4l-0.5,0.1v34.1h2.7v-13.6   c1.6,0.1,3.2,0.2,4.9,0.2c2.7,5.3,4.6,8.7,5.4,9.9c0.9,1.3,1.8,2.3,2.7,2.8c0.9,0.6,2.1,0.9,3.6,0.9l0.5,0l0-0.4h1.8l3.4-11.5h9.7   l3.4,11.5h3l-10.2-34.1L945.3,172z M917.1,175.3c1.1-0.1,2.1-0.1,2.9-0.1c1.7,0,3,0.5,4.1,1.7c1,1.1,1.6,2.8,1.6,5   c0,2.2-0.5,4.2-1.6,5.9c-1.2,2-2.1,2.4-2.6,2.4c-1.3,0-2.7-0.1-4.3-0.2V175.3z M948.3,191.9h-7.9l3.4-11.6   c0.2-0.6,0.3-1.2,0.5-1.9c0.2,0.5,0.3,1.2,0.6,1.9L948.3,191.9z"></path>		<path class="st2" d="M1020.1,201c-0.7-1-2.4-4.1-5.2-9.3c1-1,1.9-2.4,2.6-4c0.9-1.8,1.3-3.7,1.3-5.8c0-3.1-0.8-5.6-2.3-7.3   c-1.6-1.7-3.6-2.6-5.9-2.6c-1.5,0-3.3,0.1-5.4,0.4l-0.5,0.1v34.1h2.7v-13.6c1.6,0.1,3.2,0.2,4.9,0.2c2.8,5.4,4.6,8.7,5.4,9.9   c0.9,1.3,1.8,2.3,2.7,2.8c0.9,0.6,2.1,0.9,3.6,0.9l0.5,0l0.1-2.6l-0.5-0.1C1022.7,203.9,1021.3,202.8,1020.1,201z M1007.4,175.3   c1.1-0.1,2.1-0.1,2.9-0.1c1.7,0,3,0.5,4.1,1.7c1,1.1,1.6,2.8,1.6,5c0,2.3-0.5,4.2-1.6,5.9c-1.2,2-2.1,2.4-2.6,2.4   c-1.3,0-2.8-0.1-4.4-0.2V175.3z"></path>		<rect x="1026.9" y="172.2" class="st2" width="2.7" height="34.3"></rect>		<path class="st2" d="M647.6,172h-1.8l-9.6,32.2l-0.1,0c-1.5-0.3-2.9-1.3-4.2-3.2c-0.7-1-2.4-4.1-5.2-9.3c1-1.1,1.9-2.4,2.6-4   c0.9-1.8,1.3-3.7,1.3-5.8c0-3.1-0.8-5.6-2.3-7.3c-1.6-1.7-3.6-2.6-5.9-2.6c-1.5,0-3.3,0.1-5.4,0.4l-0.5,0.1v34.1h2.8v-13.6   c1.6,0.1,3.2,0.2,4.9,0.2c2.7,5.2,4.6,8.7,5.4,9.9c0.9,1.3,1.8,2.3,2.7,2.8c0.9,0.6,2.1,0.9,3.6,0.9l0.5,0l0-0.4h1.8l3.4-11.5h9.7   l3.4,11.5h3l-10.2-34.1L647.6,172z M627.9,181.8c0,2.2-0.5,4.2-1.6,5.9c-1,1.6-1.9,2.4-2.6,2.4c-1.3,0-2.7-0.1-4.3-0.2v-14.6   c1.1-0.1,2.1-0.1,2.9-0.1c1.7,0,3,0.5,4.1,1.7C627.4,177.9,627.9,179.6,627.9,181.8z M650.6,191.9h-7.9l3.4-11.6   c0.2-0.6,0.3-1.2,0.5-1.9c0.2,0.6,0.3,1.2,0.6,1.9L650.6,191.9z"></path>		<path class="st2" d="M1048.3,171.7c-3.5,0-6.5,1.8-8.9,5.2c-2.3,3.4-3.5,7.6-3.5,12.5c0,4.9,1.2,9.1,3.5,12.5   c2.4,3.4,5.4,5.2,8.9,5.2c3.5,0,6.6-1.8,8.9-5.2c2.3-3.4,3.5-7.6,3.5-12.4c0-4.9-1.2-9.1-3.5-12.5   C1054.9,173.4,1051.9,171.7,1048.3,171.7z M1058,189.3c0,4.1-0.9,7.6-2.8,10.3c-1.8,2.7-4.1,4.1-6.8,4.1c-2.8,0-5-1.3-6.8-4.1   c-1.9-2.8-2.8-6.3-2.8-10.3c0-4.1,0.9-7.6,2.8-10.4c1.8-2.8,4.1-4.1,6.8-4.1c2.8,0,5,1.3,6.8,4.1   C1057,181.8,1058,185.2,1058,189.3z"></path>		<path class="st2" d="M895.7,171.7c-3.6,0-6.6,1.8-8.9,5.2c-2.3,3.4-3.5,7.6-3.5,12.5c0,4.9,1.2,9.1,3.5,12.4   c2.4,3.4,5.4,5.2,8.9,5.2c3.5,0,6.6-1.8,8.9-5.2c2.3-3.4,3.5-7.6,3.5-12.4s-1.2-9.1-3.5-12.5C902.2,173.4,899.2,171.7,895.7,171.7   z M895.7,203.8c-2.8,0-5-1.3-6.9-4.1c-1.9-2.8-2.8-6.3-2.8-10.3c0-4.1,0.9-7.6,2.8-10.4c1.8-2.8,4.1-4.1,6.9-4.1   c2.8,0,5,1.3,6.8,4.1c1.9,2.8,2.8,6.3,2.8,10.4c0,4.1-0.9,7.6-2.8,10.3C900.7,202.4,898.4,203.8,895.7,203.8z"></path>		<path class="st2" d="M1077.2,191.9c-0.7-0.9-1.2-1.6-1.7-2.1c-0.4-0.5-1.2-1.3-2.6-2.6c-1.2-1.2-2.2-2.3-3-3.3   c-1-1.4-1.5-2.9-1.5-4.6c0-1.5,0.4-2.6,1.1-3.4c0.7-0.8,1.6-1.2,2.8-1.2c1.9,0,3.5,0.5,4.9,1.4l0.6,0.4l1-2.9l-0.3-0.2   c-1.7-1.2-3.7-1.8-5.8-1.8c-2.2,0-3.9,0.7-5.2,2.1c-1.2,1.4-1.9,3.3-1.9,5.7c0,2.4,0.7,4.5,2,6.3c0.7,0.9,1.2,1.6,1.8,2.2   c0.4,0.5,1.2,1.2,2.6,2.6c1.2,1.2,2.2,2.3,2.9,3.3c1,1.3,1.5,2.8,1.5,4.4c0,1.9-0.5,3.2-1.4,4.2c-0.9,1-2.2,1.5-3.9,1.5   c-1.7,0-3.3-0.7-4.9-2.2l-0.5-0.5l-1.4,2.8l0.2,0.3c1.7,1.9,3.9,2.8,6.5,2.8c2.6,0,4.6-0.8,6.1-2.3c1.4-1.5,2.2-3.8,2.2-6.8   C1079.1,195.7,1078.4,193.6,1077.2,191.9z"></path>		<polygon class="st2" points="681.8,189.4 690.2,189.4 690.2,186.3 681.8,186.3 681.8,175.3 691.1,175.3 691.1,172.2 679,172.2    679,206.5 691.5,206.5 691.5,203.2 681.8,203.2   "></polygon>		<polygon class="st2" points="664.2,172.2 661.5,172.2 661.5,206.5 675.1,206.5 675.1,203.2 664.2,203.2   "></polygon>		<path class="st2" d="M874.2,188c0.8-0.8,1.4-1.8,2-3.1c0.7-1.5,1.1-3.3,1.1-5.1c0-2.5-0.7-4.4-2.1-5.8c-1.4-1.3-3.1-2-5.1-2   c-1.9,0-3.7,0.1-5.4,0.3l-0.5,0.1v33.9l0.5,0.1c1.9,0.2,4.1,0.4,6.5,0.4c2.5,0,4.6-0.8,6-2.4c1.4-1.6,2.1-4,2.1-7   c0-2.2-0.6-4.2-1.6-6C876.7,189.8,875.6,188.7,874.2,188z M871.4,186.9c-1.2-0.1-2.7-0.2-4.4-0.2v-11.5c0.9-0.1,1.9-0.1,3-0.1   c1.3,0,2.3,0.4,3.2,1.2c0.9,0.8,1.3,1.9,1.3,3.5c0,1.6-0.3,3-1,4.3C872.9,185.3,872.2,186.2,871.4,186.9z M867,189.7l1.1,0   c1.3,0,2.4,0.1,3.1,0.4c1.5,0.5,2.8,1.5,3.8,2.8c1,1.3,1.4,2.9,1.4,4.6c0,1.8-0.5,3.2-1.4,4.4c-0.9,1.1-2.1,1.7-3.5,1.7   c-2,0-3.5,0-4.5-0.1V189.7z"></path>		<path class="st2" d="M739.6,174.4c-1.5-1.6-3.4-2.4-5.6-2.4c-2,0-4,0.1-5.9,0.4l-0.5,0.1v34h2.8v-31.2c1.1-0.1,2.1-0.1,2.9-0.1   c1.7,0,3,0.5,4.1,1.6c1,1.1,1.5,2.8,1.5,5.2c0,2.4-0.8,4.4-2.2,5.9c-1.5,1.5-3.2,2.2-5.3,2.2h-0.8v2.7h0.9c2.8,0,5.2-1,7.2-3.1   c2-2.1,3-4.7,3-7.9C741.8,178.5,741.1,176,739.6,174.4z"></path>		<path class="st2" d="M850.4,172h-1.8l-10,33.7v-2.4h-10.9v-31H825v34.3h16.2l3.4-11.5h9.7l3.4,11.5h3l-10.2-34.1L850.4,172z    M853.4,191.9h-7.9l3.4-11.6c0.2-0.6,0.3-1.2,0.5-1.9c0.2,0.6,0.3,1.2,0.6,1.9L853.4,191.9z"></path>		<path class="st2" d="M798.3,172h-1.8l-9.6,32.2l-0.1,0c-1.5-0.3-2.9-1.3-4.2-3.2c-0.7-1-2.4-4.2-5.2-9.3c1-1.1,1.9-2.4,2.6-4   c0.9-1.8,1.3-3.7,1.3-5.8c0-3.1-0.8-5.6-2.3-7.3c-1.6-1.7-3.6-2.6-5.9-2.6c-1.5,0-3.3,0.1-5.4,0.4l-0.5,0.1v34.1h2.7v-13.6   c1.6,0.1,3.2,0.2,4.9,0.2c2.8,5.5,4.6,8.7,5.4,9.9c0.9,1.3,1.8,2.3,2.7,2.8c0.9,0.6,2.1,0.9,3.6,0.9l0.5,0l0-0.4h1.8l3.4-11.5h9.7   l3.4,11.5h3l-10.2-34.1L798.3,172z M770,175.3c1.1-0.1,2.1-0.1,2.9-0.1c1.7,0,3,0.5,4.1,1.7c1,1.1,1.6,2.8,1.6,5   c0,2.2-0.5,4.2-1.6,5.9c-1.2,2-2.1,2.4-2.6,2.4c-1.3,0-2.7-0.1-4.3-0.2V175.3z M801.3,191.9h-7.9l3.4-11.6   c0.2-0.5,0.3-1.2,0.5-1.8c0.2,0.5,0.3,1.2,0.6,1.9L801.3,191.9z"></path>		<path class="st2" d="M753.4,172h-1.8l-10.2,34.5h2.8l3.4-11.5h9.7l3.4,11.5h3l-10.2-34.1L753.4,172z M756.4,191.9h-7.9l3.4-11.6   c0.1-0.5,0.3-1.2,0.5-1.8c0.2,0.6,0.3,1.2,0.6,1.9L756.4,191.9z"></path>	</g>	<g>		<rect x="551.1" y="54" class="st3" width="13.7" height="16.9"></rect>		<path class="st3" d="M412.6,79.5c-17.1,0-26.1,7.9-27,23.5l-0.1,1.7h13.7l0.1-1.6c0.3-7.2,4.3-10.5,12.8-10.5c4.1,0,7,0.7,8.7,2   c1.7,1.3,2.7,2.8,3.1,4.7c0.4,2,0.6,5.1,0.6,9.2H421c-24.6,0-37,8.9-37,26.6c0,6.5,2,11.8,6.1,15.9c4.1,4.1,9.3,6.2,15.5,6.2   c7.4,0,13.7-2.3,18.9-6.7v5.1h13.6v-47.7c0-11.2-2.2-18.6-6.9-22.5C426.8,81.5,420.5,79.5,412.6,79.5z M424.5,121.1v13.7   c-1.7,2.8-4,5.1-6.8,6.7c-2.9,1.7-6,2.6-9.2,2.6c-3.3,0-6-0.9-7.9-2.5c-1.9-1.6-2.8-4-2.8-7.2c0-9,6.9-13.3,21.1-13.3H424.5z"></path>		<rect x="633.5" y="81.1" class="st3" width="13.7" height="74.4"></rect>		<path class="st3" d="M487.5,133.3c-4.4,6.8-9.3,10.3-14.4,10.3c-3.4,0-5.7-1-7.1-3.1c-1.5-2.3-2.3-6.2-2.3-11.7V81.1h-13.7v48.2   c0,18.5,7.2,27.9,21.5,27.9c5.8,0,11.2-2.6,15.9-7.8v6.2h13.6V81.1h-13.6V133.3z"></path>		<path class="st3" d="M540.7,79.5c-5.1,0-9.6,2.6-13.7,7.8v-6.2h-13.7v74.4H527v-51.5c3.5-6,7.4-9,12.1-9c2.6,0,4.5,0.2,5.8,0.7   l2.2,0.8V80.4l-1.3-0.3C544,79.7,542.3,79.5,540.7,79.5z"></path>		<rect x="551.1" y="81.1" class="st3" width="13.7" height="74.4"></rect>		<path class="st3" d="M613.6,132.6c-0.1,3.8-1.3,6.6-3.4,8.5c-2.2,2-4.8,2.9-7.9,2.9c-4.4,0-8-2-10.8-6.2   c-2.9-4.3-4.4-10.9-4.4-19.5c0-8.7,1.5-15.3,4.4-19.6c2.8-4.1,6.3-6.2,10.8-6.2c3.1,0,5.7,1,7.9,2.9c2.1,1.9,3.3,4.8,3.4,8.6   l0.1,1.6h14.1l-0.2-1.8c-0.8-7.8-3.6-13.9-8.1-18.1c-4.6-4.2-10.3-6.3-17.2-6.3c-8.8,0-16,3.5-21.3,10.4   c-5.2,6.7-7.8,16.3-7.8,28.5c0,12.1,2.6,21.7,7.8,28.5c5.3,6.9,12.5,10.4,21.3,10.4c6.8,0,12.6-2.1,17.2-6.3   c4.6-4.2,7.3-10.2,8.1-18.1l0.2-1.8h-14.1L613.6,132.6z"></path>		<rect x="633.5" y="54" class="st3" width="13.7" height="16.9"></rect>		<path class="st3" d="M684.8,79.5c-8.8,0-16,3.5-21.3,10.4c-5.2,6.7-7.8,16.3-7.8,28.5c0,12.1,2.6,21.7,7.8,28.5   c5.3,6.9,12.5,10.4,21.3,10.4c8.9,0,16-3.5,21.3-10.4c5.2-6.7,7.8-16.3,7.8-28.5c0-12.2-2.6-21.8-7.8-28.5   C700.8,83,693.6,79.5,684.8,79.5z M699.9,118.4c0,8.7-1.5,15.2-4.4,19.5c-2.8,4.2-6.3,6.2-10.8,6.2c-4.4,0-8-2-10.8-6.2   c-2.9-4.3-4.4-10.9-4.4-19.5c0-8.7,1.5-15.3,4.4-19.6c2.8-4.1,6.4-6.2,10.8-6.2c4.5,0,8,2,10.8,6.2   C698.4,103.1,699.9,109.7,699.9,118.4z"></path>		<path class="st3" d="M344,54.6c-7.7,0-14.2,2.8-19.5,8.4c-5.4-5.6-12-8.4-19.8-8.4c-7.7,0-14.3,2.8-19.5,8.5   c-5.3,5.7-7.9,12.6-7.9,21v71.5H293V84.1c0-3.4,1.2-6.3,3.5-8.8c2.3-2.5,5.1-3.8,8.2-3.8c3,0,5.8,1.2,8.3,3.7   c2.3,2.7,3.5,5.7,3.5,8.9v71.5h15.7V84.1c0-3.4,1.2-6.3,3.5-8.8c2.3-2.5,5.1-3.8,8.2-3.8c3,0,5.8,1.2,8.3,3.7   c2.3,2.7,3.5,5.7,3.5,8.9v71.5h15.7V84.1c0-8.5-2.6-15.6-7.8-21.1C358.5,57.4,352,54.6,344,54.6z"></path>		<path class="st3" d="M1080,118.8c0-12.2-2.6-21.8-7.8-28.5c-5.3-6.9-12.5-10.4-21.3-10.4c-8.7,0-15.8,3.5-21.2,10.5   c-5.3,6.8-7.9,16.4-7.9,28.3c0,12,2.8,21.6,8.2,28.4c5.5,6.9,13,10.4,22.1,10.4c7.1,0,13.1-2.1,18.1-6.4c5-4.2,7.9-10.3,8.8-18   l0.2-1.8h-14.1l-0.1,1.6c-0.1,3.7-1.4,6.4-4,8.4c-2.7,2-5.6,3.1-8.9,3.1c-4.4,0-8-1.8-11-5.4c-2.8-3.4-4.6-8.7-5.1-15.7h44.1   V118.8z M1036.3,110.2c0.9-5.6,2.6-9.9,5.1-12.7c2.7-3,5.8-4.5,9.5-4.5c3.8,0,7,1.5,9.6,4.5c2.5,2.8,4.2,7.1,5.1,12.7H1036.3z"></path>		<path class="st3" d="M1010.8,117.8c-3.7-2.9-9-5.4-16.4-7.6c-8.6-2.5-11.7-4-12.9-4.8c-1.3-0.9-1.9-2.4-1.9-4.7   c0-2.6,0.9-4.4,2.8-5.7c2-1.4,4.6-2.1,7.8-2.1c9.3,0,10.6,4.9,10.8,8.5l0.1,1.5h13.6l0-1.7c-0.3-14.3-8.8-21.5-25.2-21.5   c-7,0-12.8,2.1-17,6.3c-4.3,4.2-6.4,9.5-6.4,15.8c0,7,1.8,12,5.4,14.9c3.3,2.7,8.5,5.1,15.7,7.4c8.4,2.5,11.9,4.1,13.3,5   c1.7,1,2.5,2.8,2.5,5.4c0,2.8-1,5.1-2.9,7c-2,1.9-4.9,2.8-8.8,2.8c-8.8,0-12.9-3.6-13-11.4l0-1.6h-13.7l0.1,1.7   c0.8,16.3,9.8,24.5,26.8,24.5c7.6,0,13.8-2.3,18.3-6.9c4.6-4.6,6.9-10.4,6.9-17.3C1016.6,126.2,1014.6,120.9,1010.8,117.8z"></path>		<polygon class="st3" points="1068,52.7 1050.9,52.7 1042.2,74.7 1053.7,74.7   "></polygon>		<path class="st3" d="M874.5,79.9c-8.8,0-16,3.5-21.3,10.4c-5.2,6.7-7.8,16.3-7.8,28.5c0,12.1,2.6,21.7,7.8,28.5   c5.3,6.9,12.5,10.4,21.3,10.4c8.9,0,16-3.5,21.3-10.4c5.2-6.8,7.8-16.3,7.8-28.5c0-12.2-2.6-21.8-7.8-28.5   C890.6,83.4,883.4,79.9,874.5,79.9z M889.7,118.8c0,8.7-1.5,15.3-4.4,19.5c-2.8,4.2-6.3,6.2-10.8,6.2c-4.4,0-8-2-10.8-6.2   c-2.9-4.3-4.4-10.8-4.4-19.5c0-8.7,1.5-15.3,4.4-19.6c2.8-4.1,6.4-6.2,10.8-6.2c4.4,0,8,2,10.8,6.2   C888.2,103.4,889.7,110,889.7,118.8z"></path>		<path class="st3" d="M954.1,117.8c-3.7-2.9-9-5.4-16.4-7.6c-8.6-2.5-11.7-4-12.9-4.8c-1.3-0.9-1.9-2.4-1.9-4.7   c0-2.6,0.9-4.4,2.8-5.7c2-1.4,4.6-2.1,7.8-2.1c9.3,0,10.6,4.9,10.8,8.5l0.1,1.5H958l0-1.7c-0.3-14.3-8.8-21.5-25.2-21.5   c-7,0-12.8,2.1-17,6.3c-4.3,4.2-6.4,9.5-6.4,15.8c0,7,1.8,12,5.4,14.9c3.3,2.7,8.5,5.1,15.7,7.4c8.4,2.5,11.9,4.1,13.3,5   c1.7,1,2.5,2.8,2.5,5.4c0,2.8-1,5.1-2.9,7c-2,1.9-4.9,2.8-8.8,2.8c-8.8,0-12.9-3.6-13-11.4l0-1.6h-13.7l0.1,1.7   c0.8,16.3,9.8,24.5,26.8,24.5c7.6,0,13.8-2.3,18.3-6.9c4.6-4.6,6.9-10.4,6.9-17.3C959.9,126.2,958,120.9,954.1,117.8z"></path>		<path class="st3" d="M805.8,55c-7.7,0-14.2,2.8-19.5,8.4c-5.4-5.6-12-8.4-19.8-8.4c-7.7,0-14.3,2.8-19.5,8.5   c-5.3,5.7-7.9,12.6-7.9,21V156h15.7V84.5c0-3.4,1.2-6.3,3.5-8.8s5.1-3.8,8.2-3.8c3,0,5.8,1.2,8.3,3.7c2.3,2.7,3.5,5.7,3.5,8.9V156   h15.7V84.5c0-3.4,1.2-6.3,3.5-8.8s5.1-3.8,8.2-3.8c3,0,5.8,1.2,8.3,3.7c2.3,2.7,3.5,5.7,3.5,8.9V156h15.7V84.5   c0-8.5-2.6-15.6-7.8-21.1C820.4,57.8,813.8,55,805.8,55z"></path>	</g></g></svg>